HIERARCHY
ROOT Hips
{
	OFFSET 0.00000 0.00000 0.00000
	CHANNELS 6 Xposition Yposition Zposition Yrotation Zrotation Xrotation 
	JOINT Lumbar
	{
		OFFSET 0 0 0
		CHANNELS 3 Zrotation Xrotation Yrotation
		JOINT Neck
		{
			OFFSET 0.00 0.2701 0.00
			CHANNELS 3 Zrotation Xrotation Yrotation
			End Site
			{
				OFFSET 0.00 0.1379 0.00
			}
		}
		JOINT RightShoulder
		{
			OFFSET 0.0119 0.2289 0.1181
			CHANNELS 3 Zrotation Xrotation Yrotation
			JOINT RightElbow
			{
				OFFSET 0.00 -0.1475 0.00
				CHANNELS 2 Zrotation Yrotation
				JOINT RightWrist
				{
					OFFSET 0.00 -0.1605 0.00
					CHANNELS 2 Zrotation Xrotation
					End Site
					{
						OFFSET 0.0040 -0.1068 0.0006
					}
				}
			}
		}
		JOINT LeftShoulder
		{
			OFFSET 0.0119 0.2289 -0.1181
			CHANNELS 3 Zrotation Xrotation Yrotation
			JOINT LeftElbow
			{
				OFFSET 0.00 -0.1475 0.00
				CHANNELS 2 Zrotation Yrotation
				JOINT LeftWrist
				{
					OFFSET 0.00 -0.1605 0.00
					CHANNELS 2 Zrotation Xrotation
					End Site
					{
						OFFSET 0.0040 -0.1068 -0.0006
					}
				}
			}
		}
	}
	JOINT RightHip
	{
		OFFSET 0.0316 -0.0424 0.0458
		CHANNELS 3 Zrotation Xrotation Yrotation
		JOINT RightKnee
		{
			OFFSET 0.00 -0.2438 0.00
			CHANNELS 1 Zrotation
			JOINT RightAnkle
			{
				OFFSET 0.00 -0.2449 0.00
				CHANNELS 3 Zrotation Xrotation Yrotation
				End Site
				{
					OFFSET 0.1237 -0.0542 0.0051
				}
			}
		}
	}
	JOINT LeftHip
	{
		OFFSET 0.0316 -0.0424 -0.0458
		CHANNELS 3 Zrotation Xrotation Yrotation
		JOINT LeftKnee
		{
			OFFSET 0.00 -0.2438 0.00
			CHANNELS 1 Zrotation
			JOINT LeftAnkle
			{
				OFFSET 0.00 -0.2449 0.00
				CHANNELS 3 Zrotation Xrotation Yrotation
				End Site
				{
					OFFSET 0.1237 -0.0542 -0.0051
				}
			}
		}
	}
}
MOTION
Frames: 14
Frame Time: 0.02
-0.00058 -0.00014 -0.00035 -181.50572 -39.71114 -3.42634 49.4754 2.36189 -1.82532 -18.00397 -1.96927 -0.72207 39.91235 -105.95557 64.16984 9.07309 87.95643 8.88164 -1.82558 21.166 103.77342 -64.15883 8.32384 -88.00045 5.68437 1.09481 43.8948 -2.82485 -6.60877 -21.42263 -7.0328 -3.94669 -2.70225 47.6521 8.67736 -0.3703 -26.87302 -6.94564 3.06337 2.26656
-0.00041 -0.0001 -0.00019 -181.56038 -39.70798 -3.44575 49.4458 2.37772 -1.81793 -17.99928 -1.95343 -0.72211 39.97643 -105.91382 64.16984 9.06887 87.96555 8.88419 -1.79212 21.16883 103.80915 -64.16004 8.3513 -87.933 5.67685 1.07217 43.93228 -2.84288 -6.61408 -21.44876 -7.02955 -3.91694 -2.68894 47.6639 8.69007 -0.2788 -26.88214 -6.94777 3.06548 2.26488
-0.00023 -7e-05 -3e-05 -181.61524 -39.7048 -3.46512 49.41614 2.39356 -1.81037 -17.9946 -1.93758 -0.72216 40.04023 -105.87209 64.16984 9.06482 87.97478 8.88664 -1.75876 21.17208 103.84476 -64.16121 8.3788 -87.86578 5.66923 1.0495 43.96981 -2.86091 -6.61901 -21.47487 -7.02635 -3.88728 -2.67567 47.67565 8.70253 -0.18784 -26.89125 -6.94992 3.06766 2.26325
-6e-05 -4e-05 0.00013 -181.66979 -39.70164 -3.48447 49.38661 2.40936 -1.80296 -17.98992 -1.92178 -0.72221 40.10405 -105.83046 64.16984 9.06061 87.98388 8.88918 -1.7254 21.17495 103.88039 -64.16245 8.40618 -87.79852 5.66172 1.02691 44.0072 -2.87889 -6.62424 -21.50093 -7.02312 -3.85762 -2.66239 47.68741 8.71517 -0.09665 -26.90034 -6.95205 3.06978 2.26158
0.00011 -0 0.00029 -181.72401 -39.6985 -3.50387 49.35721 2.42511 -1.7958 -17.98525 -1.90603 -0.72226 40.16832 -105.78882 64.16984 9.05625 87.99287 8.89182 -1.69196 21.1773 103.91612 -64.16364 8.43351 -87.73109 5.65431 1.00439 44.04449 -2.89685 -6.62998 -21.52699 -7.01985 -3.82788 -2.64908 47.69922 8.72811 -0.00485 -26.90944 -6.95416 3.07179 2.25985
0.00029 3e-05 0.00046 -181.78021 -39.69523 -3.52318 49.32699 2.44114 -1.78741 -17.98054 -1.88995 -0.72231 40.23121 -105.74691 64.16985 9.05287 88.00262 8.89383 -1.65878 21.18244 103.95146 -64.16468 8.46139 -87.66437 5.64622 0.98142 44.08253 -2.91503 -6.63322 -21.5532 -7.01678 -3.79839 -2.63589 47.71086 8.73958 0.08432 -26.91859 -6.95641 3.07434 2.25846
0.00046 6e-05 0.00061 -181.83236 -39.69223 -3.54263 49.29846 2.45661 -1.78146 -17.9759 -1.87458 -0.72235 40.29644 -105.70563 64.16985 9.04734 88.01071 8.89722 -1.62507 21.18186 103.9876 -64.16632 8.48804 -87.5961 5.63964 0.95936 44.11899 -2.93273 -6.64148 -21.57907 -7.01331 -3.76842 -2.62247 47.72279 8.75403 0.17876 -26.92761 -6.95837 3.07579 2.25636
0.00063 0.0001 0.00078 -181.88825 -39.68899 -3.56196 49.26835 2.47256 -1.77334 -17.97122 -1.8585 -0.7224 40.36016 -105.66369 64.16985 9.04412 88.02054 8.89912 -1.59194 21.18674 104.02291 -64.16685 8.51599 -87.52959 5.6314 0.93648 44.15697 -2.95093 -6.64512 -21.60527 -7.01021 -3.73889 -2.60926 47.73452 8.76565 0.26822 -26.93677 -6.9606 3.07827 2.25493
0.00081 0.00013 0.00095 -181.94875 -39.6854 -3.58112 49.23635 2.48924 -1.7622 -17.96641 -1.84172 -0.72245 40.41949 -105.62124 64.16986 9.04246 88.03169 8.90007 -1.55915 21.19761 104.05758 -64.16826 8.54489 -87.46393 5.62217 0.9125 44.1966 -2.96951 -6.64301 -21.63185 -7.00757 -3.7099 -2.59631 47.74578 8.7741 0.35205 -26.94602 -6.96313 3.08197 2.25428
0.00096 0.00016 0.00107 -181.98287 -39.68366 -3.60121 49.21537 2.50215 -1.76734 -17.96209 -1.8295 -0.72249 40.49643 -105.58259 64.16985 9.02803 88.03281 8.90908 -1.52327 21.17196 104.09708 -64.17133 8.56641 -87.38947 5.62178 0.89457 44.22613 -2.98522 -6.67369 -21.65615 -7.00229 -3.6778 -2.58187 47.75906 8.80167 0.46964 -26.95453 -6.96384 3.07853 2.24903
0.00118 0.0002 0.00131 -182.07251 -39.67814 -3.61936 49.17107 2.52275 -1.73887 -17.95692 -1.80731 -0.72255 40.54111 -105.53542 64.16987 9.04294 88.05665 8.89946 -1.49464 21.22465 104.12563 -64.16659 8.60473 -87.33608 5.60075 0.86404 44.27733 -3.00741 -6.63539 -21.6853 -7.00259 -3.65226 -2.57057 47.7685 8.78833 0.51515 -26.96471 -6.96844 3.09023 2.25353
0.0016 0.00025 0.00187 -182.31745 -39.6612 -3.632 49.06261 2.56664 -1.61115 -17.94788 -1.76047 -0.72269 40.45887 -105.46821 64.16992 9.12044 88.12971 8.85214 -1.4797 21.48508 104.12981 -64.17457 8.67975 -87.31984 5.5395 0.7972 44.38596 -3.04408 -6.40415 -21.72756 -7.01819 -3.645 -2.56802 47.76377 8.66638 0.36849 -26.97869 -6.98351 3.14314 2.28478
0.0021 0.00031 0.00257 -182.61767 -39.64066 -3.64275 48.93075 2.61779 -1.45111 -17.93827 -1.70315 -0.72286 40.35321 -105.3915 64.16997 9.23121 88.22733 8.78398 -1.473 21.82621 104.12175 -64.1678 8.77352 -87.32815 5.45509 0.71807 44.5168 -3.08792 -6.10437 -21.77473 -7.0394 -3.64426 -2.56859 47.75587 8.50276 0.14888 -26.99447 -7.0025 3.21127 2.3258
0.00258 0.00036 0.00322 -182.89058 -39.62243 -3.65443 48.80973 2.66423 -1.31029 -17.92998 -1.64885 -0.72301 40.28095 -105.3174 64.17011 9.33788 88.32311 8.71616 -1.46678 22.1343 104.1158 -64.14621 8.86471 -87.33932 5.36978 0.64561 44.63874 -3.13061 -5.83828 -21.81977 -7.05806 -3.64037 -2.56765 47.75172 8.35569 -0.0416 -27.00994 -7.01989 3.27274 2.36242
